<svg xmlns="http://www.w3.org/2000/svg" xmlns:xlink="http://www.w3.org/1999/xlink" xmlns:s="https://github.com/nturley/netlistsvg" width="746" height="226.5"><style>svg {
  stroke:#000;
  fill:none;
}
text {
  fill:#000;
  stroke:none;
  font-size:10px;
  font-weight: bold;
  font-family: "Courier New", monospace;
}
line {
    stroke-linecap: round;
}
.nodelabel {
  text-anchor: middle;
}
.inputPortLabel {
  text-anchor: end;
}
.splitjoinBody {
  fill:#000;
}</style><g s:type="generic" transform="translate(103,84)" s:width="30" s:height="40" id="cell_$auto$ff.cc:262:slice$14"><text x="15" y="-4" class="nodelabel cell_$auto$ff.cc:262:slice$14" s:attribute="ref">$sdff</text><rect width="30" height="60" s:generic="body" fill="#ffae46" rx="0" class="cell_$auto$ff.cc:262:slice$14"/><g transform="translate(0,10)" s:x="0" s:y="10" s:pid="in0" id="port_$auto$ff.cc:262:slice$14~CLK"><text x="-3" y="-4" class="inputPortLabel cell_$auto$ff.cc:262:slice$14">CLK</text></g><g transform="translate(0,30)" s:x="0" s:y="10" s:pid="in0" id="port_$auto$ff.cc:262:slice$14~D"><text x="-3" y="-4" class="inputPortLabel cell_$auto$ff.cc:262:slice$14">D</text></g><g transform="translate(0,50)" s:x="0" s:y="10" s:pid="in0" id="port_$auto$ff.cc:262:slice$14~SRST"><text x="-3" y="-4" class="inputPortLabel cell_$auto$ff.cc:262:slice$14">SRST</text></g><g transform="translate(30,10)" s:x="30" s:y="10" s:pid="out0" id="port_$auto$ff.cc:262:slice$14~Q"><text x="5" y="-4" style="fill:#000; stroke:none" class="cell_$auto$ff.cc:262:slice$14">Q</text></g></g><g s:type="generic" transform="translate(308,64)" s:width="30" s:height="40" id="cell_$auto$ff.cc:262:slice$15"><text x="15" y="-4" class="nodelabel cell_$auto$ff.cc:262:slice$15" s:attribute="ref">$sdff</text><rect width="30" height="60" s:generic="body" fill="#ffae46" rx="0" class="cell_$auto$ff.cc:262:slice$15"/><g transform="translate(0,10)" s:x="0" s:y="10" s:pid="in0" id="port_$auto$ff.cc:262:slice$15~CLK"><text x="-3" y="-4" class="inputPortLabel cell_$auto$ff.cc:262:slice$15">CLK</text></g><g transform="translate(0,30)" s:x="0" s:y="10" s:pid="in0" id="port_$auto$ff.cc:262:slice$15~D"><text x="-3" y="-4" class="inputPortLabel cell_$auto$ff.cc:262:slice$15">D</text></g><g transform="translate(0,50)" s:x="0" s:y="10" s:pid="in0" id="port_$auto$ff.cc:262:slice$15~SRST"><text x="-3" y="-4" class="inputPortLabel cell_$auto$ff.cc:262:slice$15">SRST</text></g><g transform="translate(30,10)" s:x="30" s:y="10" s:pid="out0" id="port_$auto$ff.cc:262:slice$15~Q"><text x="5" y="-4" style="fill:#000; stroke:none" class="cell_$auto$ff.cc:262:slice$15">Q</text></g></g><g s:type="generic" transform="translate(513,129)" s:width="30" s:height="40" id="cell_$auto$ff.cc:262:slice$16"><text x="15" y="-4" class="nodelabel cell_$auto$ff.cc:262:slice$16" s:attribute="ref">$sdff</text><rect width="30" height="60" s:generic="body" fill="#ffae46" rx="0" class="cell_$auto$ff.cc:262:slice$16"/><g transform="translate(0,10)" s:x="0" s:y="10" s:pid="in0" id="port_$auto$ff.cc:262:slice$16~CLK"><text x="-3" y="-4" class="inputPortLabel cell_$auto$ff.cc:262:slice$16">CLK</text></g><g transform="translate(0,30)" s:x="0" s:y="10" s:pid="in0" id="port_$auto$ff.cc:262:slice$16~D"><text x="-3" y="-4" class="inputPortLabel cell_$auto$ff.cc:262:slice$16">D</text></g><g transform="translate(0,50)" s:x="0" s:y="10" s:pid="in0" id="port_$auto$ff.cc:262:slice$16~SRST"><text x="-3" y="-4" class="inputPortLabel cell_$auto$ff.cc:262:slice$16">SRST</text></g><g transform="translate(30,10)" s:x="30" s:y="10" s:pid="out0" id="port_$auto$ff.cc:262:slice$16~Q"><text x="5" y="-4" style="fill:#000; stroke:none" class="cell_$auto$ff.cc:262:slice$16">Q</text></g></g><g s:type="inputExt" transform="translate(12,104.5)" s:width="30" s:height="20" id="cell_stall"><text x="15" y="-4" class="nodelabel cell_stall" s:attribute="ref">stall</text><s:alias val="$_inputExt_"/><path d="M0,0 L0,20 L15,20 L30,10 L15,0 Z" fill="#8bcaff" class="cell_stall"/><g s:x="30" s:y="10" s:pid="Y"/></g><g s:type="inputExt" transform="translate(12,22)" s:width="30" s:height="20" id="cell_clk"><text x="15" y="-4" class="nodelabel cell_clk" s:attribute="ref">clk</text><s:alias val="$_inputExt_"/><path d="M0,0 L0,20 L15,20 L30,10 L15,0 Z" fill="#8bcaff" class="cell_clk"/><g s:x="30" s:y="10" s:pid="Y"/></g><g s:type="inputExt" transform="translate(12,169.5)" s:width="30" s:height="20" id="cell_reset"><text x="15" y="-4" class="nodelabel cell_reset" s:attribute="ref">reset</text><s:alias val="$_inputExt_"/><path d="M0,0 L0,20 L15,20 L30,10 L15,0 Z" fill="#8bcaff" class="cell_reset"/><g s:x="30" s:y="10" s:pid="Y"/></g><g s:type="outputExt" transform="translate(692,33)" s:width="30" s:height="20" id="cell_stall_1"><text x="15" y="-4" class="nodelabel cell_stall_1" s:attribute="ref">stall_1</text><s:alias val="$_outputExt_"/><path d="M30,0 L30,20 L15,20 L0,10 L15,0 Z" fill="#169300" class="cell_stall_1"/><g s:x="0" s:y="10" s:pid="A"/></g><g s:type="outputExt" transform="translate(692,194.5)" s:width="30" s:height="20" id="cell_stall_2"><text x="15" y="-4" class="nodelabel cell_stall_2" s:attribute="ref">stall_2</text><s:alias val="$_outputExt_"/><path d="M30,0 L30,20 L15,20 L0,10 L15,0 Z" fill="#169300" class="cell_stall_2"/><g s:x="0" s:y="10" s:pid="A"/></g><g s:type="outputExt" transform="translate(692,129.5)" s:width="30" s:height="20" id="cell_stall_3"><text x="15" y="-4" class="nodelabel cell_stall_3" s:attribute="ref">stall_3</text><s:alias val="$_outputExt_"/><path d="M30,0 L30,20 L15,20 L0,10 L15,0 Z" fill="#169300" class="cell_stall_3"/><g s:x="0" s:y="10" s:pid="A"/></g><line x1="42" x2="52" y1="32" y2="32" class="net_3 width_1" style="stroke-width: 1"/><line x1="52" x2="52" y1="32" y2="94.5" class="net_3 width_1" style="stroke-width: 1"/><circle cx="52" cy="32" r="2" style="fill:#000" class="net_3 width_1"/><line x1="52" x2="103" y1="94.5" y2="94.5" class="net_3 width_1" style="stroke-width: 1"/><line x1="42" x2="267" y1="32" y2="32" class="net_3 width_1" style="stroke-width: 1"/><line x1="267" x2="267" y1="32" y2="74.5" class="net_3 width_1" style="stroke-width: 1"/><circle cx="267" cy="32" r="2" style="fill:#000" class="net_3 width_1"/><line x1="267" x2="308" y1="74.5" y2="74.5" class="net_3 width_1" style="stroke-width: 1"/><line x1="42" x2="472" y1="32" y2="32" class="net_3 width_1" style="stroke-width: 1"/><line x1="472" x2="472" y1="32" y2="139.5" class="net_3 width_1" style="stroke-width: 1"/><line x1="472" x2="513" y1="139.5" y2="139.5" class="net_3 width_1" style="stroke-width: 1"/><line x1="42" x2="102" y1="114.5" y2="114.5" class="net_2 width_1" style="stroke-width: 1"/><line x1="42" x2="52" y1="179.5" y2="179.5" class="net_4 width_1" style="stroke-width: 1"/><line x1="52" x2="52" y1="179.5" y2="134.5" class="net_4 width_1" style="stroke-width: 1"/><circle cx="52" cy="179.5" r="2" style="fill:#000" class="net_4 width_1"/><line x1="52" x2="102" y1="134.5" y2="134.5" class="net_4 width_1" style="stroke-width: 1"/><line x1="42" x2="257" y1="179.5" y2="179.5" class="net_4 width_1" style="stroke-width: 1"/><line x1="257" x2="257" y1="179.5" y2="114.5" class="net_4 width_1" style="stroke-width: 1"/><circle cx="257" cy="179.5" r="2" style="fill:#000" class="net_4 width_1"/><line x1="257" x2="307" y1="114.5" y2="114.5" class="net_4 width_1" style="stroke-width: 1"/><line x1="42" x2="512" y1="179.5" y2="179.5" class="net_4 width_1" style="stroke-width: 1"/><line x1="134" x2="307" y1="94.5" y2="94.5" class="net_5 width_1" style="stroke-width: 1"/><line x1="134" x2="257" y1="94.5" y2="94.5" class="net_5 width_1" style="stroke-width: 1"/><line x1="257" x2="257" y1="94.5" y2="43" class="net_5 width_1" style="stroke-width: 1"/><circle cx="257" cy="94.5" r="2" style="fill:#000" class="net_5 width_1"/><line x1="257" x2="692" y1="43" y2="43" class="net_5 width_1" style="stroke-width: 1"/><line x1="339" x2="462" y1="74.5" y2="74.5" class="net_6 width_1" style="stroke-width: 1"/><line x1="462" x2="462" y1="74.5" y2="159.5" class="net_6 width_1" style="stroke-width: 1"/><circle cx="462" cy="159.5" r="2" style="fill:#000" class="net_6 width_1"/><line x1="462" x2="512" y1="159.5" y2="159.5" class="net_6 width_1" style="stroke-width: 1"/><line x1="339" x2="462" y1="74.5" y2="74.5" class="net_6 width_1" style="stroke-width: 1"/><line x1="462" x2="462" y1="74.5" y2="204.5" class="net_6 width_1" style="stroke-width: 1"/><line x1="462" x2="692" y1="204.5" y2="204.5" class="net_6 width_1" style="stroke-width: 1"/><line x1="544" x2="692" y1="139.5" y2="139.5" class="net_7 width_1" style="stroke-width: 1"/></svg>